<svg width="8" height="4" viewBox="0 0 8 4" fill="none" xmlns="http://www.w3.org/2000/svg">
<path fill-rule="evenodd" clip-rule="evenodd" d="M0.822959 0.322989C0.846181 0.299707 0.873769 0.281236 0.904142 0.268633C0.934514 0.256029 0.967075 0.249542 0.999959 0.249542C1.03284 0.249542 1.0654 0.256029 1.09578 0.268633C1.12615 0.281236 1.15374 0.299707 1.17696 0.322989L3.99996 3.14649L6.82296 0.322989C6.8462 0.299745 6.8738 0.281307 6.90417 0.268727C6.93454 0.256148 6.96709 0.249673 6.99996 0.249673C7.03283 0.249673 7.06538 0.256148 7.09575 0.268727C7.12612 0.281307 7.15372 0.299745 7.17696 0.322989C7.2002 0.346233 7.21864 0.373828 7.23122 0.404197C7.2438 0.434567 7.25027 0.467117 7.25027 0.499989C7.25027 0.532861 7.2438 0.565411 7.23122 0.595781C7.21864 0.626151 7.2002 0.653745 7.17696 0.676989L4.17696 3.67699C4.15374 3.70027 4.12615 3.71874 4.09578 3.73135C4.0654 3.74395 4.03284 3.75044 3.99996 3.75044C3.96708 3.75044 3.93451 3.74395 3.90414 3.73135C3.87377 3.71874 3.84618 3.70027 3.82296 3.67699L0.822959 0.676989C0.799677 0.653766 0.781206 0.626178 0.768602 0.595806C0.755999 0.565433 0.749512 0.532873 0.749512 0.499989C0.749512 0.467105 0.755999 0.434545 0.768602 0.404172C0.781206 0.3738 0.799677 0.346212 0.822959 0.322989V0.322989Z" fill="#212121"/>
</svg>
