<svg width="13" height="21" viewBox="0 0 13 21" fill="none" xmlns="http://www.w3.org/2000/svg">
<path d="M6.5 20.8C4.77609 20.8 3.12279 20.1152 1.90381 18.8962C0.684819 17.6772 0 16.0239 0 14.3V6.5C0 4.77609 0.684819 3.12279 1.90381 1.90381C3.12279 0.684819 4.77609 0 6.5 0C8.22391 0 9.87721 0.684819 11.0962 1.90381C12.3152 3.12279 13 4.77609 13 6.5V14.3C13 15.1536 12.8319 15.9988 12.5052 16.7874C12.1786 17.5761 11.6998 18.2926 11.0962 18.8962C10.4926 19.4998 9.77606 19.9786 8.98744 20.3052C8.19883 20.6319 7.35359 20.8 6.5 20.8ZM6.5 1.3C5.12087 1.3 3.79823 1.84786 2.82304 2.82304C1.84786 3.79823 1.3 5.12087 1.3 6.5V14.3C1.3 15.6791 1.84786 17.0018 2.82304 17.977C3.79823 18.9521 5.12087 19.5 6.5 19.5C7.87913 19.5 9.20177 18.9521 10.177 17.977C11.1521 17.0018 11.7 15.6791 11.7 14.3V6.5C11.7 5.12087 11.1521 3.79823 10.177 2.82304C9.20177 1.84786 7.87913 1.3 6.5 1.3Z" fill="black"/>
<path d="M6.49984 7.80002C6.34313 7.80002 6.19283 7.73154 6.08201 7.60964C5.97119 7.48774 5.90894 7.32242 5.90894 7.15002V4.55002C5.90894 4.37763 5.97119 4.2123 6.08201 4.09041C6.19283 3.96851 6.34313 3.90002 6.49984 3.90002C6.65656 3.90002 6.80686 3.96851 6.91768 4.09041C7.0285 4.2123 7.09075 4.37763 7.09075 4.55002V7.15002C7.09075 7.32242 7.0285 7.48774 6.91768 7.60964C6.80686 7.73154 6.65656 7.80002 6.49984 7.80002Z" fill="black"/>
</svg>
