<svg width="15" height="15" viewBox="0 0 15 15" fill="none" xmlns="http://www.w3.org/2000/svg">
<path fill-rule="evenodd" clip-rule="evenodd" d="M9.78915 9.78924C9.87622 9.70207 9.97961 9.63292 10.0934 9.58574C10.2072 9.53857 10.3292 9.51428 10.4524 9.51428C10.5756 9.51428 10.6976 9.53857 10.8114 9.58574C10.9252 9.63292 11.0286 9.70207 11.1157 9.78924L14.725 13.3986C14.9009 13.5743 14.9998 13.8128 14.9999 14.0615C15 14.3102 14.9013 14.5487 14.7255 14.7246C14.5497 14.9005 14.3112 14.9994 14.0626 14.9995C13.8139 14.9996 13.5753 14.9009 13.3994 14.7251L9.79009 11.1158C9.70292 11.0287 9.63378 10.9253 9.5866 10.8115C9.53942 10.6977 9.51514 10.5757 9.51514 10.4525C9.51514 10.3293 9.53942 10.2073 9.5866 10.0935C9.63378 9.9797 9.70292 9.8763 9.79009 9.78924H9.78915Z" fill="#212121"/>
<path fill-rule="evenodd" clip-rule="evenodd" d="M6.09367 11.2498C6.77079 11.2498 7.44128 11.1165 8.06685 10.8574C8.69243 10.5982 9.26084 10.2184 9.73964 9.73964C10.2184 9.26084 10.5982 8.69243 10.8574 8.06685C11.1165 7.44128 11.2498 6.77079 11.2498 6.09367C11.2498 5.41655 11.1165 4.74606 10.8574 4.12048C10.5982 3.49491 10.2184 2.92649 9.73964 2.4477C9.26084 1.9689 8.69243 1.5891 8.06685 1.32998C7.44128 1.07086 6.77079 0.937487 6.09367 0.937487C4.72616 0.937487 3.41467 1.48073 2.4477 2.4477C1.48073 3.41467 0.937487 4.72616 0.937487 6.09367C0.937487 7.46117 1.48073 8.77267 2.4477 9.73964C3.41467 10.7066 4.72616 11.2498 6.09367 11.2498V11.2498ZM12.1873 6.09367C12.1873 7.70981 11.5453 9.25976 10.4025 10.4025C9.25976 11.5453 7.70981 12.1873 6.09367 12.1873C4.47753 12.1873 2.92758 11.5453 1.78479 10.4025C0.64201 9.25976 0 7.70981 0 6.09367C0 4.47753 0.64201 2.92758 1.78479 1.78479C2.92758 0.64201 4.47753 0 6.09367 0C7.70981 0 9.25976 0.64201 10.4025 1.78479C11.5453 2.92758 12.1873 4.47753 12.1873 6.09367V6.09367Z" fill="#212121"/>
</svg>
