<svg width="18" height="11" viewBox="0 0 18 11" fill="none" xmlns="http://www.w3.org/2000/svg">
<path d="M17.5873 0.724009C17.7131 0.306311 17.5873 0 16.9926 0H15.0227C14.5215 0 14.2924 0.264991 14.1667 0.556032C14.1667 0.556032 13.1651 2.99844 11.7458 4.58209C11.2877 5.04291 11.0784 5.18843 10.8287 5.18843C10.7038 5.18843 10.5224 5.04291 10.5224 4.62521V0.724009C10.5224 0.222772 10.3778 0 9.96005 0H6.8646C6.55201 0 6.36337 0.231755 6.36337 0.45273C6.36337 0.927018 7.073 1.03661 7.14576 2.37324V5.27286C7.14576 5.90794 7.03168 6.02382 6.78017 6.02382C6.11275 6.02382 4.48867 3.57243 3.52482 0.766227C3.33709 0.220975 3.14755 0.000898637 2.64452 0.000898637H0.675502C0.112284 0.000898637 0 0.265889 0 0.55693C0 1.07972 0.667417 3.66675 3.10892 7.08827C4.7366 9.42468 7.02809 10.6912 9.11568 10.6912C10.367 10.6912 10.5215 10.4101 10.5215 9.92502V8.15902C10.5215 7.5967 10.6409 7.48352 11.0371 7.48352C11.3281 7.48352 11.8294 7.63083 12.998 8.75637C14.3328 10.0912 14.5538 10.6904 15.3039 10.6904H17.2729C17.8352 10.6904 18.1164 10.4092 17.9547 9.85406C17.7777 9.30162 17.14 8.49767 16.2938 7.54639C15.8339 7.00384 15.1467 6.41996 14.9374 6.12802C14.6454 5.75164 14.7299 5.58546 14.9374 5.25131C14.9374 5.25131 17.3376 1.8729 17.5873 0.724009Z" fill="#212121"/>
</svg>
