<svg width="18" height="13" viewBox="0 0 18 13" fill="none" xmlns="http://www.w3.org/2000/svg">
<path d="M17.6338 1.98131C17.5314 1.60124 17.3312 1.25462 17.0532 0.975967C16.7751 0.697311 16.429 0.49633 16.0491 0.393029C14.6407 0.00630219 9.00623 6.83202e-06 9.00623 6.83202e-06C9.00623 6.83202e-06 3.37262 -0.0062889 1.96331 0.36335C1.58371 0.471405 1.23826 0.675228 0.960131 0.955252C0.681998 1.23528 0.480518 1.5821 0.375036 1.96242C0.00359894 3.37082 1.3177e-06 6.29196 1.3177e-06 6.29196C1.3177e-06 6.29196 -0.00359612 9.22748 0.365143 10.6215C0.571997 11.3922 1.17907 12.0011 1.95072 12.2089C3.37352 12.5956 8.99274 12.6019 8.99274 12.6019C8.99274 12.6019 14.6273 12.6082 16.0357 12.2394C16.4156 12.1363 16.7621 11.9358 17.0408 11.6577C17.3196 11.3796 17.5209 11.0336 17.6248 10.6539C17.9972 9.24637 17.9999 6.32613 17.9999 6.32613C17.9999 6.32613 18.0179 3.38971 17.6338 1.98131V1.98131ZM7.20391 8.99814L7.2084 3.60196L11.8914 6.30455L7.20391 8.99814V8.99814Z" fill="#212121"/>
</svg>
